<svg width="131" height="161" viewBox="0 0 131 161" fill="none" xmlns="http://www.w3.org/2000/svg">
<g clip-path="url(#clip0_3_63)">
<path d="M87.3333 0V40.25H131L87.3333 0ZM76.4167 40.25V0H16.375C7.33122 0 0 6.7576 0 15.0938V145.906C0 154.239 7.33122 161 16.375 161H114.625C123.669 161 131 154.242 131 145.906V50.3125H87.6404C81.2951 50.3125 76.4167 45.8158 76.4167 40.25ZM92.7917 130.812H38.2083C35.2062 130.812 32.75 128.548 32.75 125.781C32.75 123.014 35.2062 120.75 38.2083 120.75H92.7917C95.806 120.75 98.25 123.002 98.25 125.781C98.25 128.548 95.7938 130.812 92.7917 130.812ZM92.7917 110.688H38.2083C35.2062 110.688 32.75 108.423 32.75 105.656C32.75 102.889 35.2062 100.625 38.2083 100.625H92.7917C95.806 100.625 98.25 102.877 98.25 105.656C98.25 108.423 95.7938 110.688 92.7917 110.688ZM98.25 85.5312C98.25 88.2984 95.7938 90.5625 92.7917 90.5625H38.2083C35.2062 90.5625 32.75 88.2984 32.75 85.5312C32.75 82.7641 35.2062 80.5 38.2083 80.5H92.7917C95.7938 80.5 98.25 82.7641 98.25 85.5312Z" fill="white"/>
</g>
<defs>
<clipPath id="clip0_3_63">
<rect width="131" height="161" fill="white"/>
</clipPath>
</defs>
</svg>
