<svg width="423" height="504" viewBox="0 0 423 504" fill="none" xmlns="http://www.w3.org/2000/svg">
<g filter="url(#filter0_d_2325_5123)">
<path d="M153.218 485.781C142.508 482.44 142.508 475.307 143.782 463.833L118.023 467.433L122.867 497.994H162.401C162.401 497.994 163.933 489.122 153.218 485.781Z" fill="#CC7035"/>
<path d="M143.782 463.833L118.023 467.433L120.407 482.476H146.964C142.59 478.518 142.831 472.382 143.782 463.833Z" fill="#5B5953"/>
<path d="M91.207 212.654C91.207 212.654 127.734 412.598 132.555 470.457" stroke="#274877" stroke-width="47.2755" stroke-miterlimit="10"/>
<path d="M98.583 144.121C98.583 144.121 137.764 207.857 145.033 193.319" stroke="#78658F" stroke-width="29.5472" stroke-miterlimit="10"/>
<path d="M56.0081 459.177C56.0081 460.498 54.5872 488.394 54.1938 496.057C54.1409 497.113 54.9806 497.994 56.0374 497.994H102.64C103.944 497.994 104.918 496.808 104.677 495.522C103.85 491.213 100.796 482.699 89.5289 481.806C74.3743 480.603 83.9391 453.059 83.9391 453.059" fill="#CC7035"/>
<path d="M89.522 481.807H54.915C55.4317 471.532 56.0072 460.017 56.0072 459.178L83.9382 453.054C83.9323 453.06 74.3675 480.603 89.522 481.807Z" fill="#5B5953"/>
<path d="M84.3902 483.533C85.2357 482.141 86.551 481.055 88.0893 480.515C88.4416 480.391 88.289 479.822 87.9308 479.951C86.2457 480.55 84.8071 481.713 83.8794 483.239C83.6857 483.556 84.1906 483.856 84.3902 483.533Z" fill="#FFD8C5"/>
<path d="M88.9539 484.765C89.4648 483.608 90.2927 482.616 91.3554 481.929C91.6725 481.724 91.3789 481.219 91.0618 481.424C89.9228 482.164 89.0009 483.227 88.449 484.472C88.3844 484.618 88.4079 484.789 88.5547 484.871C88.678 484.941 88.8894 484.912 88.9539 484.765Z" fill="#FFD8C5"/>
<path d="M93.3864 485.928C94.0499 484.683 94.9717 483.579 96.0932 482.728C96.2165 482.634 96.287 482.476 96.1989 482.329C96.1284 482.205 95.9229 482.129 95.7996 482.223C94.596 483.139 93.5919 484.296 92.8815 485.634C92.7053 485.969 93.2103 486.263 93.3864 485.928Z" fill="#FFD8C5"/>
<path d="M79.8281 481.289C80.9848 479.88 82.5525 478.865 84.314 478.395C84.678 478.295 84.5254 477.731 84.1555 477.831C82.3059 478.324 80.6267 479.399 79.4113 480.878C79.1705 481.16 79.5874 481.577 79.8281 481.289Z" fill="#FFD8C5"/>
<path d="M71.0568 211.408C71.0568 211.408 73.4347 383.891 68.6494 472.816" stroke="#516889" stroke-width="47.2755" stroke-miterlimit="10"/>
<path d="M81.11 247.649C99.1949 247.649 113.856 231.981 113.856 212.654C113.856 193.327 99.1949 177.66 81.11 177.66C63.025 177.66 48.3643 193.327 48.3643 212.654C48.3643 231.981 63.025 247.649 81.11 247.649Z" fill="#516889"/>
<path d="M112.845 208.796L48.2283 264.981C48.2283 264.981 47.9758 228.366 48.3633 212.654C48.651 200.84 53.8356 200.171 53.8356 200.171" fill="#274877"/>
<path d="M73.4814 126.993C73.7868 133.37 74.2565 139.734 74.873 146.07" stroke="#F2C656" stroke-width="18.9102" stroke-miterlimit="10"/>
<path d="M78.291 133.224C75.1673 136.535 68.6029 138.778 64.7864 138.708L63.7354 127.152C63.7412 127.146 79.6179 131.814 78.291 133.224Z" fill="#3A3144"/>
<path d="M79.6295 134.086C71.4563 135.959 63.3066 130.857 61.4335 122.684L59.22 113.037C57.4761 105.433 62.2262 97.8588 69.824 96.115C77.4277 94.3711 85.002 99.1212 86.7459 106.719L89.435 118.439C91.0497 125.467 86.6578 132.472 79.6295 134.086Z" fill="#F2C656"/>
<path d="M89.923 109.279C91.1619 112.186 90.1226 117.417 86.6408 118.216C86.6408 118.216 83.7579 109.96 83.752 109.954C83.5582 109.397 85.8188 107.706 86.2415 107.559C88.05 106.913 89.283 107.794 89.923 109.279Z" fill="#F2C656"/>
<path d="M84.5432 107.012C83.228 106.706 86.6276 110.981 87.2089 110.335C87.7902 109.689 87.3381 106.078 87.3381 106.078" fill="#3A3144"/>
<path d="M58.5321 115.215C58.5321 115.215 51.8327 105.991 60.8279 101.047C60.8279 101.047 62.6129 94.1593 70.1872 91.6756C77.7615 89.1861 79.1883 94.5468 79.1883 94.5468C79.1883 94.5468 85.8877 91.2 90.0037 94.0712C94.1138 96.9424 88.5711 103.636 88.5711 103.636C88.5711 103.636 94.6834 105.738 90.4323 108.228C86.1813 110.717 71.0679 104.018 71.0679 104.018C71.0679 104.018 75.9296 107.353 71.7431 107.746C67.4921 108.145 63.7519 106.883 63.7519 106.883C63.7519 106.883 64.8969 112.32 62.196 114.815" fill="#3A3144"/>
<path d="M77.4328 119.713C77.4563 119.666 77.4798 119.619 77.5033 119.578C77.515 119.555 77.5326 119.531 77.5502 119.508C77.5913 119.443 77.5326 119.531 77.5209 119.543C77.562 119.502 77.5913 119.461 77.6324 119.42C77.6501 119.402 77.6618 119.39 77.6794 119.373C77.697 119.355 77.7734 119.296 77.697 119.355C77.6148 119.42 77.7029 119.349 77.7205 119.343C77.7381 119.332 77.7557 119.32 77.7734 119.308C77.8145 119.285 77.8614 119.261 77.9025 119.238C77.9671 119.202 77.7734 119.285 77.8673 119.255C77.8908 119.249 77.9084 119.243 77.9319 119.238C77.9554 119.232 78.0669 119.185 78.0904 119.202C78.0846 119.202 77.9436 119.214 78.0317 119.214C78.0611 119.214 78.0846 119.208 78.1139 119.208C78.1609 119.208 78.2196 119.226 78.2666 119.214C78.249 119.22 78.1315 119.191 78.2079 119.208C78.2372 119.214 78.2607 119.22 78.2901 119.226C78.337 119.238 78.3899 119.255 78.4369 119.273C78.5484 119.308 78.3488 119.226 78.4075 119.261C78.431 119.273 78.4603 119.285 78.4838 119.302C78.5308 119.326 78.5719 119.355 78.613 119.384C78.6306 119.396 78.6952 119.443 78.6247 119.39C78.5484 119.332 78.6306 119.396 78.6424 119.414C78.6835 119.455 78.7246 119.496 78.7657 119.537C78.9712 119.766 79.3939 119.76 79.5935 119.537C79.8225 119.29 79.8108 118.956 79.5935 118.709C79.1473 118.198 78.4662 117.969 77.8027 118.075C77.2097 118.169 76.6636 118.598 76.4112 119.132C76.3407 119.279 76.3055 119.426 76.3524 119.584C76.3877 119.719 76.4934 119.866 76.6225 119.936C76.8868 120.06 77.2919 120.013 77.4328 119.713Z" fill="#3A3144"/>
<path d="M77.6427 123.252C76.6445 122.395 75.4174 121.884 74.1021 121.826C73.7968 121.814 73.5032 122.107 73.515 122.413C73.5326 122.742 73.7733 122.982 74.1021 123C74.2372 123.006 74.3781 123.017 74.5132 123.035C74.3722 123.017 74.5895 123.047 74.613 123.053C74.6834 123.064 74.748 123.076 74.8126 123.094C75.071 123.153 75.3293 123.229 75.5759 123.329C75.5994 123.34 75.6229 123.346 75.6464 123.358C75.5877 123.335 75.5877 123.335 75.6464 123.358C75.711 123.387 75.7697 123.417 75.8343 123.446C75.9576 123.511 76.0809 123.575 76.1983 123.646C76.3157 123.716 76.4332 123.793 76.5506 123.875C76.5799 123.892 76.6093 123.916 76.6328 123.939C76.5858 123.898 76.5858 123.904 76.6387 123.945C76.6915 123.992 76.7502 124.033 76.8031 124.08C77.0379 124.28 77.4078 124.327 77.631 124.08C77.8423 123.863 77.8893 123.464 77.6427 123.252Z" fill="#3A3144"/>
<path d="M70.7243 117.847C71.2782 117.739 71.6339 117.172 71.5188 116.58C71.4037 115.988 70.8614 115.595 70.3075 115.703C69.7537 115.811 69.398 116.378 69.5131 116.97C69.6281 117.562 70.1704 117.955 70.7243 117.847Z" fill="#3A3144"/>
<path d="M82.9704 115.802C83.5242 115.694 83.8799 115.127 83.7649 114.535C83.6498 113.943 83.1075 113.55 82.5536 113.658C81.9998 113.766 81.6441 114.333 81.7592 114.925C81.8742 115.517 82.4165 115.91 82.9704 115.802Z" fill="#3A3144"/>
<path d="M69.5027 111.933C69.9606 111.757 70.4362 111.634 70.9294 111.569C70.8766 111.575 70.8238 111.581 70.7709 111.593C70.8531 111.581 70.9353 111.575 71.0175 111.563C71.176 111.546 71.317 111.51 71.4344 111.393C71.5342 111.293 71.6105 111.123 71.6047 110.976C71.5988 110.823 71.546 110.665 71.4344 110.559C71.3287 110.459 71.1702 110.371 71.0175 110.389C70.3893 110.448 69.7786 110.577 69.1856 110.806C69.0388 110.865 68.9155 110.935 68.8333 111.076C68.757 111.199 68.7276 111.387 68.7746 111.528C68.8215 111.669 68.9096 111.81 69.0447 111.88C69.1856 111.945 69.3559 111.992 69.5027 111.933Z" fill="#3A3144"/>
<path d="M81.2604 111.152C81.4835 111.094 81.7066 111.047 81.9356 111.011C81.8828 111.017 81.8299 111.023 81.7771 111.035C82.1 110.994 82.423 110.982 82.7518 111C83.0571 111.017 83.3507 110.718 83.3389 110.412C83.3213 110.078 83.0806 109.843 82.7518 109.825C82.147 109.79 81.5305 109.86 80.9492 110.025C80.6556 110.107 80.4442 110.448 80.5382 110.747C80.638 111.047 80.9433 111.24 81.2604 111.152Z" fill="#3A3144"/>
<path d="M56.3423 116.894C56.495 120.047 59.7126 124.304 63.1886 123.505C63.1886 123.505 62.9537 115.702 62.1845 114.815C61.1041 113.571 59.3427 113.694 58.9023 113.741C56.9941 113.946 56.266 115.273 56.3423 116.894Z" fill="#F2C656"/>
<path d="M56.4543 140.169L102.957 140.915C108.024 140.973 112.258 144.796 112.833 149.828L118.816 202.008C118.558 205.819 115.358 208.825 111.395 208.978L50.6884 211.391C46.731 211.55 43.2785 208.813 42.6855 205.044L33.7842 156.486C44.5409 139.623 51.8392 140.357 56.4543 140.169Z" fill="#78658F"/>
<path d="M118.822 202.015L118.376 198.14C118.088 195.621 117.507 193.143 116.526 190.806C114.395 185.727 110.502 181.042 103.486 179.192C85.1193 174.348 50.6943 211.398 50.6943 211.398L111.4 208.984C115.364 208.832 118.564 205.826 118.822 202.015Z" fill="#614F77"/>
<path d="M109.974 119.777C110.326 120.875 114.049 125.238 114.912 133.341" stroke="#F2C656" stroke-width="4.72755" stroke-miterlimit="10" stroke-linecap="round"/>
<path d="M103.832 150.468L120.078 134.609C120.078 134.609 103.949 117.382 95.0713 127.082C86.1935 136.782 103.832 150.468 103.832 150.468Z" fill="#F2C656"/>
<path d="M89.3291 123.118C89.3291 123.118 99.3695 119.102 110.825 128.432" stroke="#F2C656" stroke-width="3.54566" stroke-miterlimit="10" stroke-linecap="round"/>
<path d="M98.5825 127.933C98.4533 127.862 91.4485 127.14 87.0801 129.418" stroke="#F2C656" stroke-width="3.54566" stroke-miterlimit="10" stroke-linecap="round"/>
<path d="M96.0458 133.957C95.9049 133.91 91.1196 132.442 87.1445 135.396" stroke="#F2C656" stroke-width="3.54566" stroke-miterlimit="10" stroke-linecap="round"/>
<path d="M97.9121 140.692C97.7829 140.622 93.3616 138.361 88.9932 140.639" stroke="#F2C656" stroke-width="3.54566" stroke-miterlimit="10" stroke-linecap="round"/>
<path d="M94.166 161.4C93.9605 162.534 90.8369 167.342 91.0247 175.492" stroke="#F2C656" stroke-width="4.72755" stroke-miterlimit="10" stroke-linecap="round"/>
<path d="M104.225 191.035L86.0586 177.407C86.0586 177.407 99.8215 158.236 109.88 166.709C119.938 175.181 104.225 191.035 104.225 191.035Z" fill="#F2C656"/>
<path d="M115.063 162.035C115.063 162.035 104.588 159.352 94.4365 170.085" stroke="#F2C656" stroke-width="3.54566" stroke-miterlimit="10" stroke-linecap="round"/>
<path d="M106.515 168.006C106.632 167.918 113.484 166.298 118.111 167.995" stroke="#F2C656" stroke-width="3.54566" stroke-miterlimit="10" stroke-linecap="round"/>
<path d="M109.809 173.655C109.938 173.59 114.494 171.512 118.821 173.931" stroke="#F2C656" stroke-width="3.54566" stroke-miterlimit="10" stroke-linecap="round"/>
<path d="M108.835 180.577C108.952 180.489 113.045 177.677 117.672 179.374" stroke="#F2C656" stroke-width="3.54566" stroke-miterlimit="10" stroke-linecap="round"/>
<path d="M58.9902 140.21C63.3352 143.457 69.7998 145.424 75.7712 145.424C81.4548 145.424 85.4886 143.639 87.9547 140.674L58.9902 140.21Z" fill="#F2C656"/>
<path d="M145.033 193.318C152.302 178.78 106.327 138.701 106.327 138.701" stroke="#78658F" stroke-width="29.5472" stroke-miterlimit="10"/>
<path d="M54.8276 154.907C54.8276 154.907 11.9064 175.375 20.0209 206.741C27.4778 235.564 96.046 180.93 96.046 180.93" stroke="#78658F" stroke-width="29.5472" stroke-miterlimit="10"/>
<path d="M54.1938 496.063C54.1409 497.119 54.9806 498 56.0374 498H102.64C103.944 498 104.918 496.814 104.677 495.528C104.625 495.246 104.56 494.947 104.484 494.63H54.2642C54.2407 495.158 54.2173 495.646 54.1938 496.063Z" fill="#F2C656"/>
<path d="M40.4416 184.81C41.1697 184.053 41.8743 183.266 42.6611 182.573C42.8137 182.438 42.9722 182.309 43.1308 182.18C43.1719 182.15 43.213 182.115 43.2482 182.086C43.3128 182.033 43.1836 182.133 43.3069 182.039C43.4067 181.962 43.5007 181.892 43.6005 181.821C44.1466 181.422 44.7044 181.041 45.2622 180.659C46.319 179.937 47.3818 179.214 48.4445 178.492C49.0669 178.07 48.4798 177.048 47.8515 177.476C46.2838 178.545 44.6985 179.584 43.1601 180.694C42.4144 181.234 41.7099 181.816 41.064 182.467C40.5708 182.966 40.0952 183.471 39.6078 183.976C39.0853 184.522 39.9132 185.356 40.4416 184.81Z" fill="#3A3144"/>
<path d="M105.899 158.987C111.776 164.142 117.09 169.949 121.681 176.285C122.973 178.07 124.212 179.896 125.392 181.763C125.797 182.397 126.813 181.81 126.408 181.17C122.181 174.5 117.207 168.294 111.612 162.721C110.032 161.148 108.406 159.627 106.732 158.159C106.163 157.66 105.329 158.488 105.899 158.987Z" fill="#3A3144"/>
<path d="M122.867 497.994H162.401C162.401 497.994 162.647 496.562 162.248 494.624H122.333L122.867 497.994Z" fill="#F2C656"/>
<path d="M142.367 481.83C143.107 480.726 144.176 479.84 145.403 479.329C145.55 479.27 145.655 479.135 145.608 478.965C145.573 478.83 145.397 478.7 145.244 478.759C143.864 479.335 142.69 480.292 141.856 481.531C141.651 481.848 142.162 482.141 142.367 481.83Z" fill="#FFD8C5"/>
<path d="M145.46 484.524C145.965 483.485 146.846 482.634 147.927 482.193C148.073 482.135 148.179 482 148.132 481.829C148.091 481.688 147.921 481.565 147.768 481.624C146.553 482.117 145.531 483.039 144.95 484.225C144.879 484.366 144.909 484.542 145.055 484.624C145.19 484.706 145.396 484.665 145.46 484.524Z" fill="#FFD8C5"/>
<path d="M148.719 486.146C149.312 485.307 150.175 484.655 151.144 484.314C151.291 484.261 151.391 484.115 151.349 483.95C151.308 483.804 151.138 483.692 150.985 483.745C149.864 484.144 148.901 484.878 148.208 485.847C148.114 485.976 148.185 486.176 148.314 486.246C148.467 486.34 148.625 486.275 148.719 486.146Z" fill="#FFD8C5"/>
<path d="M153.617 487.836C154.064 487.144 154.68 486.562 155.414 486.151C155.555 486.075 155.596 485.887 155.52 485.752C155.438 485.611 155.256 485.57 155.12 485.646C154.31 486.104 153.617 486.762 153.112 487.543C153.03 487.672 153.083 487.872 153.218 487.942C153.359 488.018 153.523 487.977 153.617 487.836Z" fill="#FFD8C5"/>
<path d="M419.001 116.126C419.001 86.2687 398.527 61.1912 370.854 54.1747C361.524 40.5703 347.068 30.7589 330.276 27.5237C322.56 12.3751 306.831 2 288.67 2C270.38 2 254.562 12.5218 246.905 27.8408C243.136 26.8778 239.178 26.3611 235.109 26.3611C208.91 26.3611 187.667 47.5986 187.667 73.8034C187.667 79.6162 188.718 85.1883 190.632 90.3318C181.878 97.8533 176.329 108.998 176.329 121.439C176.329 138.385 186.604 152.923 201.26 159.176C201.119 160.468 201.043 161.771 201.043 163.098C201.043 182.856 217.06 198.874 236.818 198.874C240.681 198.874 244.398 198.251 247.886 197.118C257.979 206.965 271.771 213.03 286.985 213.03C303.196 213.03 317.793 206.143 328.021 195.133C332.231 196.46 336.711 197.177 341.361 197.177C357.737 197.177 372.028 188.299 379.72 175.105C402.795 165.464 419.001 142.689 419.001 116.126Z" fill="white"/>
<path d="M164.269 75.6976C165.892 72.8864 164.929 69.2919 162.118 67.6688C159.307 66.0458 155.712 67.009 154.089 69.8201C152.466 72.6313 153.429 76.2259 156.24 77.8489C159.052 79.4719 162.646 78.5087 164.269 75.6976Z" fill="#CCCCCC"/>
<path d="M161.894 69.7358C164.667 64.9335 163.021 58.7929 158.219 56.0204C153.417 53.2478 147.276 54.8932 144.504 59.6954C141.731 64.4976 143.376 70.6382 148.179 73.4108C152.981 76.1834 159.121 74.538 161.894 69.7358Z" fill="#EFEFEF"/>
<path d="M176.191 70.5135C179.077 65.5147 177.365 59.1227 172.366 56.2366C167.367 53.3506 160.975 55.0633 158.089 60.0621C155.203 65.0609 156.916 71.4529 161.914 74.339C166.913 77.225 173.305 75.5123 176.191 70.5135Z" fill="white"/>
<path d="M138.056 90.6264C139.252 88.5539 138.542 85.9037 136.47 84.7072C134.397 83.5106 131.747 84.2207 130.55 86.2932C129.354 88.3658 130.064 91.0159 132.136 92.2125C134.209 93.4091 136.859 92.699 138.056 90.6264Z" fill="#C7C7C7"/>
<path d="M132.034 89.4426C133.779 86.4209 132.744 82.5569 129.722 80.8123C126.7 79.0677 122.836 80.1031 121.092 83.1248C119.347 86.1466 120.382 90.0105 123.404 91.7551C126.426 93.4997 130.29 92.4644 132.034 89.4426Z" fill="#E7E7E7"/>
<path d="M137.205 83.4361C138.738 80.7794 137.828 77.3823 135.171 75.8485C132.515 74.3146 129.118 75.2249 127.584 77.8816C126.05 80.5382 126.96 83.9353 129.617 85.4692C132.274 87.003 135.671 86.0927 137.205 83.4361Z" fill="white"/>
<path d="M109.785 99.5722C110.748 97.9041 110.176 95.771 108.508 94.8079C106.84 93.8448 104.707 94.4164 103.744 96.0845C102.781 97.7527 103.352 99.8857 105.02 100.849C106.689 101.812 108.822 101.24 109.785 99.5722Z" fill="#B0B0B0"/>
<path d="M302.562 141.814H275.629V104.753H289.092C294.647 104.753 299.168 100.231 299.168 94.6769C299.168 89.1224 294.647 84.6013 289.092 84.6013C283.538 84.6013 279.017 89.1224 279.017 94.6769H252.084C252.084 74.2674 268.689 57.6685 289.092 57.6685C309.496 57.6685 326.101 74.2732 326.101 94.6769C326.101 110.336 316.325 123.753 302.556 129.155V141.814H302.562Z" fill="#FFCE33"/>
<path d="M302.561 154.684H275.628V172.222H302.561V154.684Z" fill="#FFCE33"/>
</g>
<defs>
<filter id="filter0_d_2325_5123" x="0.200195" y="0" width="422.801" height="504" filterUnits="userSpaceOnUse" color-interpolation-filters="sRGB">
<feFlood flood-opacity="0" result="BackgroundImageFix"/>
<feColorMatrix in="SourceAlpha" type="matrix" values="0 0 0 0 0 0 0 0 0 0 0 0 0 0 0 0 0 0 127 0" result="hardAlpha"/>
<feOffset dy="2"/>
<feGaussianBlur stdDeviation="2"/>
<feComposite in2="hardAlpha" operator="out"/>
<feColorMatrix type="matrix" values="0 0 0 0 0 0 0 0 0 0 0 0 0 0 0 0 0 0 0.25 0"/>
<feBlend mode="normal" in2="BackgroundImageFix" result="effect1_dropShadow_2325_5123"/>
<feBlend mode="normal" in="SourceGraphic" in2="effect1_dropShadow_2325_5123" result="shape"/>
</filter>
</defs>
</svg>
